<svg xmlns="http://www.w3.org/2000/svg" data-name="Layer 1" viewBox="0 0 32 32"><polygon fill="#c8c5cc" points="24 10 23 10 23 2.96 25.97 0 26.67 .7 24 3.38 24 10"/><path fill="#469ed6" d="M16.5,12.5l.1,1,.32,3,0,.19L17.3,20l.1.95.16,1.51.1,1,.11,1L18,27l.1,1,.1,1,.06.53.2,1.95v.05h10l.21-2,1.68-16,.11-1Zm4.95,17h-1A3.07,3.07,0,0,0,20.5,29h1A3.07,3.07,0,0,1,21.45,29.5Zm.05-7h-.82a2.77,2.77,0,0,1-.18-1,2.93,2.93,0,0,1,.65-1.85,5.16,5.16,0,0,1,.35,1.85Z"/><path fill="#227fc0" d="M29.5,12.5h-13l.1,1h12a.76.76,0,0,1,.75.83L27.71,29.5l-.21,2h1l.21-2,1.79-17Z"/><rect width="16" height="2" x="15.5" y="10.5" fill="#c9de79"/><rect width="1" height="2" x="30.5" y="10.5" fill="#bcd44c"/><rect width="10" height="2" x="18.5" y="8.5" fill="#fee27d"/><rect width="1" height="2" x="27.5" y="8.5" fill="#fddd5a"/><polygon fill="#c9de79" points="28.71 29.5 28.5 31.5 18.5 31.5 18.49 31.45 18.29 29.5 28.71 29.5"/><polygon fill="#bcd44c" points="27.71 29.5 27.5 31.5 28.5 31.5 28.71 29.5 27.71 29.5"/><path fill="#fff" d="M26.5,21.5a3,3,0,0,1-3,3l-.31,0-.19,0a2.68,2.68,0,0,1-.79-.24l-.35-.2V23.5h-.59a2.63,2.63,0,0,1-.58-1,0,0,0,0,1,0,0h.82v-1a5.16,5.16,0,0,0-.35-1.85A2.89,2.89,0,0,1,23,18.55l.19,0,.31,0A3,3,0,0,1,26.5,21.5Z"/><path fill="#e1e1e3" d="M23.5,18.5a2.73,2.73,0,0,0-.5.05,3,3,0,0,1,0,5.9,2.73,2.73,0,0,0,.5.05,3,3,0,0,0,0-6Z"/><path fill="#227fc0" d="M21.5,29a3.07,3.07,0,0,1-.05.53h-1A3.07,3.07,0,0,0,20.5,29Z"/><path fill="#bcd44c" d="M21.45,29.5a2.56,2.56,0,0,1-.69,1.26A2.52,2.52,0,0,1,19,31.5H5A2.53,2.53,0,0,1,2.5,29h18a3.07,3.07,0,0,1-.05.53Z"/><path fill="#227fc0" d="M21.86,24.43V28H2.5V24.5h19A.86.86,0,0,0,21.86,24.43Z"/><rect width="21" height="1.97" x="1.5" y="27" fill="#227fc0" rx=".98"/><path fill="#e1e1e3" d="M21.86,23.5V24a3.57,3.57,0,0,1-.38-.3,1,1,0,0,1-.21-.21Z"/><path fill="#227fc0" d="M21.86,24v.42a.86.86,0,0,1-.36.07H2.5v-1H21.27a1,1,0,0,0,.21.21A3.57,3.57,0,0,0,21.86,24Z"/><path fill="#469ed6" d="M22.21,24.21a1.15,1.15,0,0,1-.35.22V24Z"/><path fill="#e1e1e3" d="M22.5 23.5a1 1 0 0 1-.29.71l-.35-.2V23.5H2.5v1a1 1 0 0 1 0-2h19A1 1 0 0 1 22.5 23.5zM21.5 21.5v1h-.82a2.77 2.77 0 0 1-.18-1 2.93 2.93 0 0 1 .65-1.85A5.16 5.16 0 0 1 21.5 21.5z"/><path fill="#227fc0" d="M20.5,21.5a2.77,2.77,0,0,0,.18,1H2.5v-1a5,5,0,0,1,5-5h9l.42,0a5,5,0,0,1,4.23,3.13A2.93,2.93,0,0,0,20.5,21.5Z"/><path fill="#f9b15e" d="M6.5,16.5h9a5,5,0,0,1,5,5v1a0,0,0,0,1,0,0H1.5a0,0,0,0,1,0,0v-1A5,5,0,0,1,6.5,16.5Z"/><path fill="#f9a242" d="M15.5,16.5h-1a5,5,0,0,1,5,5v1h1v-1A5,5,0,0,0,15.5,16.5Z"/><rect width="19.36" height="4.5" x="1.5" y="23.5" fill="#7dc7a2"/><rect width="1" height="4.5" x="19.86" y="23.5" fill="#56bc8d"/><path fill="#f9b15e" d="M20.5,29a3.07,3.07,0,0,1-.05.53,2.6,2.6,0,0,1-.16.47,2.34,2.34,0,0,1-.53.79,2.52,2.52,0,0,1-1.27.69,3,3,0,0,1-.52.05H4A2.53,2.53,0,0,1,1.7,30a2.59,2.59,0,0,1-.2-1Z"/><path fill="#f9a242" d="M19.5,29a3.07,3.07,0,0,1-.05.53,2.56,2.56,0,0,1-.69,1.26,2.52,2.52,0,0,1-1.27.69,3,3,0,0,1-.52.05h1a3,3,0,0,0,.52-.05,2.52,2.52,0,0,0,1.27-.69,2.56,2.56,0,0,0,.69-1.26A3.07,3.07,0,0,0,20.5,29Z"/><path fill="#eb304a" d="M20.52,27h-1a1,1,0,0,1,0,2h1a1,1,0,0,0,0-2Z"/><path fill="#56bc8d" d="M20.86,23.57v1.86a.86.86,0,0,1-.36.07H1.5v-2h19A.86.86,0,0,1,20.86,23.57Z"/><rect width="21" height="2" x=".5" y="22.5" fill="#ed4769" rx="1"/><path fill="#eb304a" d="M20.5,22.5h-1a1,1,0,0,1,0,2h1a1,1,0,0,0,0-2Z"/><circle cx="4.5" cy="19.5" r=".5" fill="#fee27d"/><circle cx="7.5" cy="18.5" r=".5" fill="#fee27d"/><circle cx="10.5" cy="19.5" r=".5" fill="#fee27d"/><circle cx="15.5" cy="18.5" r=".5" fill="#fee27d"/><circle cx="17.5" cy="20.5" r=".5" fill="#fee27d"/><circle cx="14.5" cy="20.5" r=".5" fill="#fee27d"/><circle cx="7.5" cy="20.5" r=".5" fill="#fee27d"/><path fill="#f9a242" d="M20.5,29a3.07,3.07,0,0,1-.05.53,2.6,2.6,0,0,1-.16.47H1.7a2.59,2.59,0,0,1-.2-1Z"/><path fill="#ed4769" d="M20.52,27h-19a1,1,0,0,0-1,1h0a1,1,0,0,0,1,1h19a1,1,0,0,0,1-1h0A1,1,0,0,0,20.52,27Z"/><path fill="#eb304a" d="M20.52,27h-1a1,1,0,0,1,1,1h0a1,1,0,0,1-1,1h1a1,1,0,0,0,1-1h0A1,1,0,0,0,20.52,27Z"/><polygon fill="#eb304a" points="9.93 27 8.33 28.97 5.67 28.97 4.07 27 9.93 27"/><polygon fill="#fee27d" points="9.12 27 7 29.61 4.88 27 9.12 27"/><path d="M10.5,19a.5.5,0,1,0,.5.5A.5.5,0,0,0,10.5,19Zm-3,1a.5.5,0,1,0,.5.5A.5.5,0,0,0,7.5,20Zm-3-1a.5.5,0,1,0,.5.5A.5.5,0,0,0,4.5,19Zm3-1a.5.5,0,1,0,.5.5A.5.5,0,0,0,7.5,18Zm7,2a.5.5,0,1,0,.5.5A.5.5,0,0,0,14.5,20Zm3,0a.5.5,0,1,0,.5.5A.5.5,0,0,0,17.5,20ZM29,10V8H24V3.38L26.68.71,26,0,23,3l0,0V8H18v2H15v3h1.05l.32,3.08A4.94,4.94,0,0,0,15.5,16h-9A5.51,5.51,0,0,0,1,21.5v.59a1.49,1.49,0,0,0,0,2.82v1.68A1.48,1.48,0,0,0,1,29.4,3,3,0,0,0,4,32H29l2-19H32V10ZM19,9h9v1H19ZM2,21.5A4.51,4.51,0,0,1,6.5,17h9A4.51,4.51,0,0,1,20,21.5V22H2ZM1.5,23h19a.5.5,0,0,1,0,1H1.5a.5.5,0,0,1,0-1ZM2,26.5V25H20.36v1.5Zm6.07,1L7,28.82,5.93,27.5Zm1.29,0H20.51a.49.49,0,1,1,0,1H8.57Zm-7.87,1a.49.49,0,1,1,0-1H4.64l.79,1ZM18,31H4a2,2,0,0,1-2-1.53H6.24L7,30.4l.76-.93H19.94A2,2,0,0,1,18,31Zm10.08,0H20.19a3,3,0,0,0,.61-1h7.36Zm.21-2H21.57A1.44,1.44,0,0,0,22,28a1.47,1.47,0,0,0-.64-1.21V24.72a1.16,1.16,0,0,0,.28-.26,3.5,3.5,0,1,0-1-4.95,5.52,5.52,0,0,0-3.21-3.16L17.06,13H29.94ZM21,22.09V21.5a2.52,2.52,0,1,1,1,2A1.51,1.51,0,0,0,21,22.09ZM31,12H16V11H31ZM15.5,18a.5.5,0,1,0,.5.5A.5.5,0,0,0,15.5,18Z"/></svg>