<svg width="24" height="24" xmlns="http://www.w3.org/2000/svg">

 <g>
  <title>background</title>
  <rect fill="none" id="canvas_background" height="402" width="582" y="-1" x="-1"/>
 </g>
 <g>
  <title>Layer 1</title>
  <path id="svg_2" fill="#bdc3c7" d="m5,3.999976c-1.1046,0 -2,0.9 -2,2l0,14c0,1.1 0.8954,2 2,2l6,0l2,0l6,0c1.105,0 2,-0.9 2,-2l0,-14c0,-1.1 -0.895,-2 -2,-2l-6,0l-2,0l-6,0z"/>
  <path id="svg_3" fill="#ecf0f1" d="m5,3c-1.1046,0 -2,0.8954 -2,2l0,14c0,1.105 0.8954,2 2,2l6,0l2,0l6,0c1.105,0 2,-0.895 2,-2l0,-14c0,-1.1046 -0.895,-2 -2,-2l-6,0l-2,0l-6,0z"/>
  <path id="svg_4" fill="#000000" d="m5,2.999976c-1.1046,0 -2,0.9 -2,2l0,3l18,0l0,-3c0,-1.1 -0.895,-2 -2,-2l-6,0l-2,0l-6,0z"/>
  <path id="svg_5" fill="#000000" d="m7.5,5.5a1.5,1.5 0 1 1 -3,0a1.5,1.5 0 1 1 3,0z"/>
  <path stroke="null" id="svg_6" fill="#e5e5e5" d="m6,1c-0.5523,0 -1,0.4477 -1,1l0,3c0,0.5523 0.4477,1 1,1s1,-0.4477 1,-1l0,-3c0,-0.5523 -0.4477,-1 -1,-1z"/>
  <path id="svg_7" fill="#000000" d="m19.5,5.5a1.5,1.5 0 1 1 -3,0a1.5,1.5 0 1 1 3,0z"/>
  <path fill="#e5e5e5" id="svg_9" d="m18,0.999976c-0.552,0 -1,0.4 -1,1l0,3c0,0.5 0.448,1 1,1s1,-0.5 1,-1l0,-3c0,-0.6 -0.448,-1 -1,-1z"/>
  <path id="svg_10" d="m5,10.999976l0,2l2,0l0,-2l-2,0zm3,0l0,2l2,0l0,-2l-2,0zm3,0l0,2l2,0l0,-2l-2,0zm3,0l0,2l2,0l0,-2l-2,0zm3,0l0,2l2,0l0,-2l-2,0z"/>
  <path id="svg_11" d="m5,13.999976l0,2l2,0l0,-2l-2,0zm3,0l0,2l2,0l0,-2l-2,0zm3,0l0,2l2,0l0,-2l-2,0zm3,0l0,2l2,0l0,-2l-2,0zm3,0l0,2l2,0l0,-2l-2,0z"/>
  <path id="svg_12" d="m5,16.999976l0,2l2,0l0,-2l-2,0zm3,0l0,2l2,0l0,-2l-2,0zm3,0l0,2l2,0l0,-2l-2,0zm3,0l0,2l2,0l0,-2l-2,0zm3,0l0,2l2,0l0,-2l-2,0z"/>
  <rect id="svg_13" y="8" x="3" width="18" height="1" fill="#000000"/>
 </g>
</svg>